<svg width="24" height="24" viewBox="0 0 24 24" fill="none" xmlns="http://www.w3.org/2000/svg">
<path fill-rule="evenodd" clip-rule="evenodd" d="M10.0808 5.19995H11.6077V5.28238C11.03 5.88682 9.83314 7.13692 9.66806 7.30177C9.46171 7.50783 9.21409 7.54904 9.13155 7.54904C9.06552 7.54904 7.70086 8.20844 7.02679 8.53813C6.7379 8.90904 6.11885 10.063 5.95377 11.7115C5.75568 14.0523 7.24689 15.7915 8.01726 16.3684L7.93472 16.8218L8.30615 17.1927L8.80139 18.5527L6.44901 17.3163L6.11885 17.2339C5.98679 17.2009 5.89875 17.0278 5.87123 16.9454L5.45853 16.6981C5.37599 16.6981 5.19441 16.6899 5.12838 16.6569C5.06234 16.624 4.93578 16.4234 4.88076 16.3272L3.56012 15.4206H3.3125C3.21346 15.4206 2.63843 14.8436 2.3633 14.5551C2.267 14.5276 2.04139 14.4562 1.90933 14.3903C1.77726 14.3243 1.02891 13.1814 0.671233 12.6181C0.64372 12.5769 0.58044 12.4863 0.547424 12.4533C0.506154 12.4121 0.299805 11.9175 0.299805 11.7115C0.299805 11.5466 0.987635 11.1757 1.33155 11.0109C1.51039 10.7773 1.90933 10.269 2.07441 10.1042C2.12763 10.051 2.2138 9.95951 2.31947 9.84727C2.62346 9.52435 3.08879 9.03006 3.39504 8.78541C3.7252 8.52165 5.87123 6.99955 6.90298 6.27147C7.16711 6.10662 9.13155 5.48844 10.0808 5.19995ZM4.38552 13.8133L2.28076 11.8351L3.51885 10.9284L4.75695 10.2278C4.60562 10.6812 4.30298 11.7444 4.30298 12.3709C4.30298 12.9973 4.35801 13.5935 4.38552 13.8133Z" fill="white"/>
<path d="M12.1855 5.28238L12.3093 5.19995L12.5157 5.3648L13.2585 6.93086L10.576 11.7115L12.5982 12.0412L12.8458 11.629L13.1347 11.3406L13.4649 11.5466L14.2903 12.5769L14.249 13.2363L13.7125 14.1842L12.722 15.6678L10.8649 18.0581L10.1633 18.8L9.79187 18.5939V18.429L9.00774 16.9866L11.8141 13.2775L8.88393 12.783L8.63631 11.7939L8.47123 11.6703L11.3601 6.80722L11.5252 6.64238L12.1855 5.28238Z" fill="white"/>
<path fill-rule="evenodd" clip-rule="evenodd" d="M13.5062 5.6945L13.63 5.44722L14.0427 5.3648L15.8998 6.18904L16.8077 6.60116L19.7792 8.37328L21.5125 9.65086L22.3792 10.2278L23.0395 10.8872L23.3696 10.7224L23.4935 10.8872V11.3406L23.6998 11.5878L22.9982 12.783L22.5855 12.3709L20.4395 14.1842L19.2014 15.0496L16.8077 16.5333L15.8173 17.1103H15.6935L12.7633 18.5527L12.2681 18.6351L13.4236 16.7806L13.5062 16.8218L14.1252 16.2448L14.9919 14.9672L16.23 14.4727C16.6427 13.9094 17.336 12.3132 16.8077 10.4339C16.2795 8.55462 15.7347 8.0848 15.5284 8.0848L14.6617 7.7551L14.2077 7.09571L13.5062 5.6945ZM18.5823 13.4012C18.6374 12.9204 18.6896 11.7444 18.4585 10.8872C18.2274 10.03 17.922 9.21126 17.7982 8.90904L19.4077 9.65086L20.8522 10.7636L20.8935 11.0109L21.5538 11.5054L20.3157 12.4121L18.5823 13.4012Z" fill="white"/>
</svg>
